<svg width="972" height="2367" viewBox="0 0 972 2367" fill="none" xmlns="http://www.w3.org/2000/svg">
<path d="M1117.68 121.5L760.181 202C517.514 740.667 32.181 1818 16.181 1854C3.38096 1882.8 672.848 2198.33 1009.18 2352.5" stroke="#FFF9EC" stroke-width="30"/>
<path d="M1547.86 15L1190.36 95.5C947.695 634.167 459.162 1718.7 446.362 1747.5C433.562 1776.3 1103.03 2091.83 1439.36 2246" stroke="#FFF9EC" stroke-width="30"/>
<path d="M1163.18 329L860.094 397.232C654.362 853.807 240.186 1773.06 229.334 1797.47C218.482 1821.88 786.053 2089.33 1071.19 2220" stroke="#FFF9EC" stroke-width="30"/>
<path d="M1593.36 222.5L1290.27 290.732C1084.54 747.307 670.367 1666.56 659.515 1690.97C648.663 1715.38 1216.23 1982.83 1501.38 2113.5" stroke="#FFF9EC" stroke-width="30"/>
</svg>
