<svg width="61" height="91" viewBox="0 0 61 91" fill="none" xmlns="http://www.w3.org/2000/svg">
<path d="M22.9552 90.3756C21.0423 89.9675 19.0911 89.6742 17.2164 89.129C11.7423 87.5349 7.13537 84.5795 3.63473 80.0172C1.75051 77.5623 1.05549 74.6451 0.548564 71.6928C-0.522669 65.4599 0.0862757 59.3003 1.41575 53.1598C1.48556 52.9415 1.5708 52.7284 1.67081 52.5222C2.33714 56.7784 5.12043 59.109 8.49035 60.8944C7.58172 59.3003 6.55831 57.7349 5.78039 56.0643C4.36802 53.0323 3.78139 49.7644 3.39243 46.4646C3.38838 46.2607 3.42524 46.0579 3.50083 45.8684C5.28941 40.0851 8.02169 34.8245 12.5202 30.6831C14.2031 29.1824 16.0477 27.8736 18.0199 26.7807C19.0847 26.175 20.462 25.9901 21.7214 25.8753C28.4166 25.2695 35.1118 25.2376 41.6316 27.243C46.5159 28.7606 50.1058 32.0667 52.9784 36.1859C56.0837 40.6494 57.8436 45.6516 58.9658 50.909C60.4802 57.9963 60.8277 65.1698 60.3654 72.3846C60.1423 75.847 59.4887 79.1914 57.3909 82.0895C55.1591 85.1725 52.0953 86.9196 48.4384 87.7262C48.2433 87.7443 48.0469 87.7443 47.8518 87.7262C51.2663 84.8569 51.2217 81.1394 50.5968 77.2339C50.5012 77.5017 50.4087 77.7727 50.3131 78.0405C48.381 83.4381 44.8358 87.2576 39.2532 88.8549C36.8748 89.5371 34.3689 89.7794 31.9204 90.2258C31.7539 90.2671 31.5899 90.3182 31.4294 90.3788L22.9552 90.3756ZM28.0563 65.4376C26.5674 64.9498 25.206 64.5863 23.9116 64.0603C22.6172 63.5342 21.4312 62.8647 20.0667 62.1952C20.0252 62.8902 19.9902 63.3844 19.9647 63.8754C19.9392 64.3663 19.9392 64.8764 19.9041 65.3738C19.7574 67.4461 19.3366 67.1401 21.4631 67.9499C23.4749 68.7182 25.5727 69.2538 27.7279 69.9202C27.6801 70.6662 27.6259 71.5302 27.5685 72.4707L30.2944 72.7704L30.5558 69.9967C32.676 70.0381 34.6017 69.8054 36.387 68.8171C40.6018 66.4865 40.927 60.5278 36.6708 58.1557C35.1978 57.3364 33.5591 56.8199 32.016 56.1249C31.761 56.0101 31.4198 55.6913 31.423 55.4681C31.423 54.1546 31.5314 52.8378 31.6016 51.5243C33.167 51.6072 35.4912 52.4616 37.2542 53.5456C37.6245 53.739 38.0068 53.9083 38.3988 54.0525C38.4944 52.4903 38.5582 51.113 38.673 49.7389C38.6984 49.6256 38.7003 49.5083 38.6787 49.3942C38.6571 49.2801 38.6123 49.1716 38.5472 49.0755C38.4821 48.9793 38.398 48.8975 38.3001 48.835C38.2022 48.7726 38.0926 48.7308 37.978 48.7123C36.2117 48.1958 34.4709 47.6124 32.676 47.1756C32.0383 47.0194 31.8598 46.8058 31.9236 46.1936C31.9873 45.5815 31.9236 45.0331 31.9236 44.3955L29.204 44.1213C29.153 45.0299 29.1052 45.8652 29.0542 46.7866C28.5473 46.7866 28.0977 46.7643 27.6801 46.7866C25.9298 46.8887 24.2528 47.2585 22.7575 48.2213C21.4822 49.0471 20.5258 50.1342 20.3026 51.706C19.8084 54.9357 21.0263 57.3332 23.9722 58.7838C25.1774 59.3768 26.4686 59.7977 27.696 60.346C27.8354 60.4119 27.9578 60.5088 28.054 60.6292C28.1501 60.7497 28.2174 60.8906 28.2508 61.0411C28.238 62.4439 28.136 63.8467 28.0563 65.4376Z" fill="black"/>
<path d="M42.5498 0C44.2172 0.290126 45.8974 0.526052 47.5489 0.886318C49.8864 1.3433 52.1074 2.26836 54.0783 3.60585C56.0167 4.97039 56.6735 6.75578 56.0454 9.05766C55.277 11.892 53.3259 13.9292 51.3811 15.992C49.736 17.72 48.2152 19.5404 46.7008 21.3609C46.111 22.0751 45.6965 22.9359 45.1673 23.7903C42.8303 22.4831 40.2543 21.7339 37.6017 21.2397C33.6165 20.5096 29.5961 20.4682 25.5695 20.7583C25.0976 20.7902 24.613 20.7934 24.1603 20.8412C22.5662 21.007 22.5662 21.0102 21.8839 19.5117C20.4046 16.2821 18.9412 13.0046 18.3036 9.46256C18.0958 8.16277 18.0775 6.83973 18.2494 5.5347C18.3323 4.80461 18.8041 4.05219 19.2728 3.44006C20.2292 2.16478 22.241 1.28484 23.9849 1.22745C24.4823 4.72171 24.9807 8.22873 25.4802 11.7485L25.6396 11.774C25.7384 10.9196 25.8564 10.0651 25.9393 9.22344C26.1338 7.2372 26.2995 5.24458 26.5227 3.26152C26.5469 3.10337 26.6069 2.95282 26.6981 2.82134C26.7892 2.68985 26.9092 2.58089 27.0488 2.50273C30.5845 1.41875 34.2286 1.14456 38.0162 1.0808L36.3997 9.50719L36.489 9.54864C36.7281 9.1278 36.9736 8.71333 37.2 8.27336C38.556 5.73343 39.9068 3.18819 41.2522 0.637639C41.3467 0.430955 41.4266 0.217884 41.4913 0L42.5498 0Z" fill="#FFB718"/>
<path d="M28.837 55.1971C26.7679 54.7635 25.7763 53.8644 26.0155 52.7135C26.2354 51.6327 27.4884 51.0269 29.0474 51.282C28.9773 52.5796 28.9071 53.8804 28.837 55.1971Z" fill="black"/>
<path d="M30.9482 61.2643C32.9121 61.7585 33.7219 62.6033 33.5657 63.9105C33.4413 64.9658 32.4721 65.5269 30.6963 65.5046L30.9482 61.2643Z" fill="black"/>
</svg>
