<svg width="27" height="23" viewBox="0 0 27 23" fill="none" xmlns="http://www.w3.org/2000/svg">
<path d="M25.8896 18.0055L21.6884 22.4986C21.5971 22.5962 21.4866 22.674 21.3638 22.7272C21.241 22.7804 21.1086 22.8078 20.9747 22.8077H1.05902C0.963988 22.8077 0.87103 22.78 0.791565 22.7281C0.712099 22.6761 0.649587 22.6021 0.61171 22.5152C0.573832 22.4283 0.562239 22.3323 0.578354 22.2389C0.594469 22.1455 0.637591 22.0588 0.702422 21.9895L4.90678 17.4964C4.99787 17.399 5.10801 17.3214 5.23039 17.2682C5.3528 17.215 5.48483 17.1875 5.61835 17.1872H25.5329C25.628 17.1872 25.7209 17.2149 25.8004 17.2669C25.8798 17.3189 25.9423 17.3929 25.9803 17.4798C26.0181 17.5667 26.0297 17.6627 26.0136 17.7561C25.9975 17.8495 25.9544 17.9362 25.8896 18.0055ZM21.6884 8.95755C21.5971 8.85995 21.4866 8.78213 21.3638 8.72894C21.241 8.67578 21.1086 8.64836 20.9747 8.64844H1.05902C0.963988 8.64844 0.87103 8.67612 0.791565 8.72809C0.712099 8.78006 0.649587 8.85404 0.61171 8.94094C0.573832 9.02786 0.562239 9.12391 0.578354 9.21731C0.594469 9.31068 0.637591 9.39735 0.702422 9.46666L4.90678 13.9598C4.99787 14.0571 5.10801 14.1348 5.23039 14.188C5.3528 14.2411 5.48483 14.2687 5.61835 14.2689H25.5329C25.628 14.2689 25.7209 14.2412 25.8004 14.1893C25.8798 14.1373 25.9423 14.0633 25.9803 13.9764C26.0181 13.8895 26.0297 13.7934 26.0136 13.7C25.9975 13.6067 25.9544 13.52 25.8896 13.4507L21.6884 8.95755ZM1.05902 5.73011H20.9747C21.1086 5.73016 21.241 5.70277 21.3638 5.64958C21.4866 5.5964 21.5971 5.51858 21.6884 5.42098L25.8896 0.927832C25.9544 0.858546 25.9975 0.771883 26.0136 0.67849C26.0297 0.585098 26.0181 0.489046 25.9803 0.402136C25.9423 0.315225 25.8798 0.241241 25.8004 0.189275C25.7209 0.137308 25.628 0.109622 25.5329 0.109619H5.61835C5.48483 0.109846 5.3528 0.137398 5.23039 0.190571C5.10801 0.243744 4.99787 0.321405 4.90678 0.418747L0.703506 4.91189C0.638738 4.9811 0.595635 5.06769 0.579483 5.16095C0.563331 5.25425 0.574832 5.35023 0.612577 5.4371C0.650321 5.52397 0.712667 5.59794 0.791969 5.65C0.871272 5.70205 0.964081 5.72988 1.05902 5.73011Z" fill="#CECECE"/>
</svg>
