<svg width="37" height="37" viewBox="0 0 37 37" fill="none" xmlns="http://www.w3.org/2000/svg">
<path fill-rule="evenodd" clip-rule="evenodd" d="M35.15 18.5C35.15 27.6955 27.6955 35.15 18.5 35.15C9.30446 35.15 1.85 27.6955 1.85 18.5C1.85 9.30446 9.30446 1.85 18.5 1.85C27.6955 1.85 35.15 9.30446 35.15 18.5ZM37 18.5C37 28.7173 28.7173 37 18.5 37C8.28273 37 0 28.7173 0 18.5C0 8.28273 8.28273 0 18.5 0C28.7173 0 37 8.28273 37 18.5ZM24.8598 9.94375C24.8598 13.5212 21.9105 16.4188 18.2691 16.4188C14.6278 16.4188 11.6785 13.5212 11.6785 9.94375C11.6785 6.36631 14.6278 3.46875 18.2691 3.46875C21.9105 3.46875 24.8598 6.36631 24.8598 9.94375ZM5.08789 26.1313C5.08789 21.8254 13.8699 19.6562 18.2691 19.6562C22.6684 19.6562 31.4504 21.8254 31.4504 26.1313C31.4504 28.1029 30.298 29.8926 28.5031 30.7084L27.8136 31.0218C22.0256 33.6527 15.4001 33.7383 9.54606 31.2578L8.06882 30.6319C6.26175 29.8661 5.08789 28.0939 5.08789 26.1313Z" fill="#454545"/>
</svg>
