<svg width="94" height="95" viewBox="0 0 94 95" fill="none" xmlns="http://www.w3.org/2000/svg">
<path d="M44.044 38.3485C44.0697 37.7445 44.1757 37.1465 44.3591 36.5704C45.0067 34.1723 44.3591 32.1475 42.4303 30.5647C39.0523 27.7692 39.0592 24.0383 42.4303 21.2667C44.3489 19.6908 45.0101 17.6695 44.3591 15.2576C43.2183 11.0334 45.5 7.94319 49.8955 7.7205C52.2936 7.59032 54.1163 6.35012 54.8151 4.06844C55.0774 3.18862 55.5489 2.38543 56.1892 1.72756C56.8296 1.0697 57.6198 0.576744 58.4922 0.290874C59.3646 0.00500349 60.2933 -0.0652748 61.1988 0.0860509C62.1043 0.237377 62.9597 0.605802 63.6918 1.15981C65.7474 2.62954 67.9571 2.53019 70.0846 1.15981C73.6613 -1.12873 77.2346 0.0463759 78.8002 4.00677C79.7321 6.3467 81.469 7.62115 84.0111 7.71365C88.0537 7.85754 90.4998 11.0779 89.4378 14.9595C88.7046 17.6455 89.4378 19.7559 91.6201 21.4688C94.6041 23.8088 94.6178 27.9199 91.6475 30.2804C89.4481 32.0276 88.7286 34.162 89.4995 36.8959C90.5547 40.6336 88.0366 43.9225 84.131 44.0287C81.5752 44.0972 79.7115 45.4197 78.7797 47.8178C77.2517 51.7542 73.6133 52.9054 70.0435 50.61C67.9502 49.267 65.7542 49.1814 63.7432 50.634C63.0192 51.1865 62.1725 51.556 61.275 51.7109C60.3776 51.8658 59.456 51.8016 58.5887 51.5237C57.7214 51.2458 56.9341 50.7625 56.2938 50.1149C55.6535 49.4672 55.1791 48.6745 54.9111 47.8041C54.1094 45.406 52.1395 44.1041 49.5666 44.0356C46.3873 43.9568 44.0337 41.6066 44.044 38.3485ZM64.8395 32.7608C65.2661 32.7648 65.6888 32.679 66.0801 32.509C66.4714 32.339 66.8226 32.0886 67.1109 31.7741C69.5433 29.3382 71.9826 26.9195 74.4013 24.4768C75.7888 23.079 75.8094 21.1194 74.4904 19.8415C73.2605 18.6493 71.3488 18.7315 70.0024 20.0574C68.656 21.3832 67.3678 22.6851 66.0523 24.0006C64.8498 25.2066 64.8498 25.2066 63.613 24.0589C63.0222 23.4778 62.2267 23.1522 61.3981 23.1522C60.5695 23.1522 59.774 23.4778 59.1832 24.0589C58.8903 24.348 58.6582 24.6928 58.5006 25.073C58.343 25.4532 58.2631 25.8611 58.2657 26.2727C58.2682 26.6842 58.3532 27.0911 58.5155 27.4693C58.6778 27.8476 58.9141 28.1895 59.2106 28.4749C60.3241 29.6363 61.4752 30.7634 62.6366 31.9009C62.9242 32.1885 63.2687 32.413 63.648 32.5599C64.0273 32.7068 64.4331 32.7729 64.8395 32.7539V32.7608Z" fill="#FFB718"/>
<path d="M78.0086 57.4276C77.8168 58.0956 77.6318 58.75 77.4468 59.4044C76.7993 61.6792 76.1792 63.9574 75.5042 66.222C74.0928 70.9669 70.1632 74.0777 65.2264 74.1017C53.8933 74.1656 42.5592 74.1656 31.2238 74.1017C26.1774 74.0743 22.2718 70.895 20.8466 65.9479C17.7907 55.348 14.7507 44.7447 11.7268 34.138C11.4732 33.2506 11.1272 32.9218 10.1919 32.9731C8.61599 33.0554 7.0332 33.0211 5.45726 32.9731C3.25438 32.9355 1.54483 31.9865 0.571857 29.9789C0.128968 29.1327 -0.0631068 28.1776 0.018218 27.226C0.0995428 26.2744 0.450886 25.3657 1.03093 24.607C1.47097 23.9429 2.06559 23.3955 2.76376 23.0118C3.46193 22.6281 4.24279 22.4195 5.0393 22.4041C8.41728 22.3184 11.8021 22.1848 15.1664 22.4589C18.1059 22.6987 20.1477 24.3637 21.1618 27.125C22.1348 29.7836 22.9879 32.4935 23.8443 35.1966C24.067 35.9023 24.3617 36.1764 25.1531 36.1661C29.0689 36.1182 32.9848 36.1661 36.8972 36.1284C37.6475 36.1284 37.8291 36.2655 37.7126 37.0672C36.7807 43.4394 41.44 49.2944 48.1823 50.2468C48.4538 50.2557 48.7162 50.347 48.9347 50.5086C49.1531 50.6701 49.3173 50.8942 49.4053 51.1512C50.0756 52.654 51.0523 54.0003 52.2729 55.1038C53.4934 56.2074 54.9309 57.0439 56.4934 57.5599C58.0559 58.0759 59.7089 58.26 61.3466 58.1003C62.9843 57.9407 64.5707 57.4408 66.0041 56.6328C66.2507 56.4589 66.5451 56.3656 66.8469 56.3656C67.1486 56.3656 67.443 56.4589 67.6897 56.6328C70.6428 58.3012 73.7707 58.5718 77.0151 57.6057C77.3029 57.5338 77.5701 57.3214 78.0086 57.4276Z" fill="black"/>
<path d="M34.6566 80.8304C36.0632 80.8285 37.4385 81.2454 38.6074 82.0279C39.7762 82.8105 40.6857 83.9232 41.2199 85.2244C41.7541 86.5256 41.889 87.9564 41.6072 89.3345C41.3254 90.7126 40.6398 91.9756 39.6376 92.9627C38.6355 93.9498 37.3623 94.6162 35.9801 94.8771C34.5979 95.138 33.1693 94.9816 31.8763 94.4278C30.5833 93.8739 29.4844 92.9477 28.7197 91.7672C27.9549 90.5866 27.5589 89.2052 27.582 87.7987C27.5878 86.8763 27.7756 85.9641 28.1345 85.1144C28.4934 84.2646 29.0164 83.4941 29.6736 82.8468C30.3307 82.1995 31.1091 81.6882 31.9642 81.3421C32.8193 80.9961 33.7342 80.8222 34.6566 80.8304Z" fill="black"/>
<path d="M59.4777 80.8304C63.3182 80.8304 66.6002 83.9378 66.6002 87.607C66.6002 91.701 63.4895 94.9522 59.5291 94.9933C57.6509 95.0001 55.847 94.2606 54.5142 92.9374C53.1813 91.6142 52.4287 89.8157 52.4219 87.9376C52.4151 86.0595 53.1546 84.2556 54.4779 82.9227C55.8011 81.5899 57.5996 80.8373 59.4777 80.8304Z" fill="black"/>
</svg>
