<svg width="82" height="82" viewBox="0 0 82 82" fill="none" xmlns="http://www.w3.org/2000/svg">
<path d="M77.9968 68.8433C77.9968 67.2737 77.2721 66.5755 75.6995 66.5725C71.5921 66.5725 67.4847 66.5901 63.3773 66.5725C56.157 66.5315 50.3479 61.8783 48.7255 54.837C46.8508 46.7483 52.7273 38.2518 60.9246 37.1546C62.3189 37.0081 63.7213 36.9522 65.1229 36.9873C68.5937 36.9873 72.0615 36.9873 75.5294 36.9873C77.2897 36.9873 78.0026 36.3008 77.9821 34.5464C77.9586 32.5895 78.073 30.6326 77.8853 28.6786C77.5919 25.6743 75.0218 22.8754 72.0175 22.4148C71.7471 22.3888 71.4877 22.2944 71.2639 22.1404C71.0401 21.9864 70.8593 21.7779 70.7384 21.5346C67.6813 16.1363 64.5274 10.7673 61.526 5.32498C60.0356 2.61995 58.2049 0.50756 54.9923 0H53.0823C48.1211 1.85714 43.8523 4.98759 39.2931 7.56646C31.1311 12.2049 23.0512 16.9871 14.942 21.7107C14.4074 22.0461 13.7862 22.2175 13.1552 22.2036C11.433 22.1713 9.71086 22.1742 7.99161 22.2036C4.26852 22.2505 1.59576 24.2573 0.589444 27.7515C0.405675 28.4202 0.31873 29.1118 0.331263 29.8052C0.331263 44.4492 0.331263 59.0921 0.331263 73.7341C0.331263 77.3751 2.44365 80.127 5.90562 81.1128C6.57495 81.2929 7.26631 81.3779 7.95934 81.3651C28.7722 81.3651 49.5842 81.3651 70.3951 81.3651C74.0302 81.3651 76.744 79.241 77.7298 75.7438C77.9001 75.0727 77.9829 74.3824 77.9762 73.6901C78.0202 72.0735 78.0114 70.457 77.9968 68.8433ZM62.1861 15.5261C62.7436 15.1945 62.9577 15.2825 63.2541 15.8194C64.3279 17.7617 65.4457 19.6804 66.5517 21.605C66.7571 21.96 66.8891 22.2153 66.2583 22.2153C61.2062 22.2153 56.1541 22.2153 51.0169 22.2153C51.1335 21.9917 51.3306 21.8208 51.5684 21.7371C55.1126 19.657 58.6625 17.6179 62.1861 15.5261ZM29.2681 21.8984C29.0592 22.0609 28.8094 22.1625 28.5463 22.1918H21.819L21.7749 22.0158C21.9275 21.9219 22.0683 21.828 22.2385 21.7371C32.1785 15.9476 42.1194 10.16 52.0613 4.37441C53.8216 3.35048 55.6054 3.54999 56.8435 4.84969C57.2778 5.30444 57.357 5.55382 56.6998 5.93523C47.5461 11.2416 38.4022 16.5627 29.2681 21.8984Z" fill="black"/>
<path d="M74.937 40.6516C71.1787 40.7689 67.4175 40.6809 63.6562 40.6809C62.9694 40.6751 62.283 40.7192 61.6025 40.8129C55.9431 41.6139 51.9207 46.5017 52.132 52.3871C52.3109 57.8059 56.8262 62.4825 62.3477 62.7906C66.9216 63.0458 71.5073 62.8669 76.0841 62.8639C76.8395 62.8674 77.5876 62.7167 78.2828 62.4211C78.9779 62.1255 79.6055 61.6911 80.127 61.1447C80.9573 60.3056 81.324 59.2377 81.6731 58.158V45.4455C80.746 41.6432 77.9999 40.5548 74.937 40.6516ZM63.2191 55.45C62.4918 55.4512 61.7806 55.2369 61.1749 54.8343C60.5693 54.4317 60.0965 53.8588 59.8161 53.1878C59.5356 52.5168 59.4602 51.7778 59.5992 51.064C59.7383 50.3502 60.0856 49.6936 60.5974 49.1769C61.1091 48.6602 61.7625 48.3067 62.4749 48.1608C63.1874 48.015 63.9271 48.0834 64.6007 48.3574C65.2743 48.6314 65.8517 49.0988 66.2601 49.7005C66.6684 50.3023 66.8894 51.0115 66.8952 51.7387C66.8953 52.7169 66.5091 53.6556 65.8207 54.3506C65.1323 55.0457 64.1973 55.4408 63.2191 55.45Z" fill="#FFB718"/>
</svg>
