<svg width="69" height="97" viewBox="0 0 69 97" fill="none" xmlns="http://www.w3.org/2000/svg">
<path d="M42.7761 96.3191C42.0537 93.9642 41.3521 91.5988 40.6088 89.2509C39.3445 85.2531 38.0733 81.2622 36.7569 77.2749C36.5346 76.601 36.677 76.2885 37.257 75.9376C38.864 74.9651 40.4479 73.9544 42.0085 72.9054C42.5684 72.5047 43.2627 72.339 43.9432 72.4435C46.6454 72.7908 49.3546 73.0895 52.0534 73.4646C52.2884 73.5265 52.5379 73.5015 52.7561 73.3943C52.9743 73.2872 53.1465 73.105 53.2412 72.8811C54.6306 70.6026 56.0824 68.3658 57.4092 66.063C57.9789 65.0592 58.7986 64.7188 59.8649 64.5C62.4073 72.4435 64.9394 80.3592 67.5062 88.4173C65.7695 88.3304 64.1683 88.2575 62.5567 88.1707C59.8371 88.0179 57.114 87.8511 54.3909 87.7122C54.0568 87.6723 53.7189 87.7431 53.4288 87.9137C49.9277 90.6923 46.4474 93.5126 42.9637 96.3191H42.7761Z" fill="black"/>
<path d="M34.6871 0C36.9308 1.46921 39.1711 2.94885 41.4322 4.39375C41.6926 4.48961 41.9757 4.50534 42.245 4.4389C44.5478 4.16451 46.8506 3.89359 49.1465 3.58447C49.3867 3.52857 49.6389 3.55967 49.8583 3.67224C50.0777 3.78481 50.2501 3.97155 50.3448 4.19924C51.5165 6.16051 52.7171 8.10557 53.9466 10.0344C54.2009 10.412 54.5644 10.7028 54.9886 10.868C57.1629 11.6576 59.3534 12.409 61.5601 13.1222C61.7858 13.1612 61.99 13.2796 62.1359 13.4561C62.2818 13.6325 62.3597 13.8554 62.3555 14.0843C62.5662 16.4577 62.8175 18.8254 63.1092 21.1873C63.1815 21.5747 63.372 21.9302 63.6545 22.2049C65.287 23.8513 66.9403 25.4837 68.6179 27.085C68.8001 27.2232 68.9274 27.4216 68.977 27.6448C69.0266 27.8681 68.9954 28.1017 68.8888 28.3041C68.0865 30.4402 67.2981 32.5867 66.5687 34.7506C66.4159 35.2402 66.4159 35.7648 66.5687 36.2545C67.2981 38.4219 68.0865 40.5649 68.8888 42.7045C68.9948 42.9061 69.0261 43.1387 68.9771 43.3611C68.9282 43.5836 68.8022 43.7816 68.6214 43.9201C66.9426 45.5248 65.2928 47.1561 63.6719 48.814C63.3648 49.1454 63.165 49.5619 63.0988 50.0089C62.8105 52.3429 62.6091 54.6839 62.3034 57.0145C62.2497 57.2042 62.1546 57.3795 62.0248 57.5279C61.8951 57.6763 61.734 57.794 61.5532 57.8725C59.3754 58.6678 57.1699 59.3695 54.9921 60.1579C54.57 60.3231 54.207 60.6111 53.9501 60.9846C52.731 62.881 51.55 64.8052 50.3969 66.7398C50.0704 67.2817 49.7786 67.5213 49.0736 67.4137C46.8437 67.0663 44.5999 66.8267 42.3561 66.6183C41.8415 66.5835 41.3283 66.7045 40.8835 66.9656C38.928 68.1535 37.0072 69.3969 35.0969 70.6473C34.9313 70.7843 34.7231 70.8592 34.5082 70.8592C34.2933 70.8592 34.0851 70.7843 33.9195 70.6473C32.0057 69.3969 30.0988 68.1535 28.1294 66.9656C27.6843 66.7053 27.1713 66.5843 26.6567 66.6183C24.3782 66.8336 22.1067 67.1022 19.8421 67.4241C19.2204 67.5109 18.9529 67.306 18.6646 66.8232C17.5219 64.9164 16.3688 63.0026 15.1496 61.1513C14.8287 60.6731 14.3712 60.3027 13.8367 60.0884C11.7527 59.3139 9.64789 58.6088 7.52917 57.9419C6.87618 57.737 6.68515 57.4001 6.62958 56.7471C6.42813 54.4373 6.1711 52.1311 5.88629 49.8317C5.80996 49.4452 5.61725 49.0913 5.33403 48.8175C3.71315 47.1688 2.06216 45.5387 0.381075 43.9271C0.202197 43.7895 0.0771542 43.5936 0.0276634 43.3734C-0.0218275 43.1533 0.00735981 42.9227 0.110156 42.7218C0.926386 40.5545 1.7183 38.3802 2.46507 36.1885C2.60409 35.7548 2.60409 35.2885 2.46507 34.8548C1.71483 32.6492 0.91944 30.4714 0.106683 28.3041C0.00339847 28.1021 -0.0260554 27.8705 0.0234168 27.6491C0.0728889 27.4277 0.198175 27.2306 0.377602 27.0919C2.01354 25.5289 3.6321 23.9659 5.21246 22.3334C5.58226 21.9383 5.82435 21.4408 5.90713 20.9059C6.20931 18.61 6.44549 16.3003 6.65042 13.9905C6.70252 13.4244 6.99775 13.2785 7.44928 13.1291C9.58537 12.4136 11.7249 11.7086 13.8332 10.9166C14.3644 10.707 14.8214 10.3443 15.1462 9.87465C16.3479 8.04074 17.4941 6.17209 18.6195 4.2826C18.7268 4.02777 18.9201 3.81867 19.1657 3.69172C19.4113 3.56478 19.6937 3.52805 19.9637 3.58794C22.1692 3.89012 24.3748 4.17146 26.5873 4.39375C27.0979 4.44683 27.6125 4.34389 28.0634 4.09852C30.0814 2.85854 32.0716 1.55605 34.0758 0.270919C34.1658 0.192112 34.2441 0.100891 34.3085 0L34.6871 0ZM58.8301 35.5668C58.8421 29.1121 56.2936 22.9162 51.7434 18.3381C47.1933 13.76 41.0132 11.1735 34.5585 11.1459C21.1724 11.0903 10.221 21.9965 10.1654 35.4591C10.1198 38.6783 10.7134 41.8746 11.9119 44.8627C13.1103 47.8508 14.8899 50.5714 17.1474 52.8669C19.4048 55.1623 22.0954 56.987 25.0631 58.2352C28.0308 59.4833 31.2168 60.1302 34.4363 60.1382C37.6558 60.1462 40.8449 59.5153 43.8188 58.282C46.7927 57.0487 49.4924 55.2375 51.7613 52.9534C54.0302 50.6692 55.8233 47.9575 57.0367 44.9754C58.2501 41.9933 58.8597 38.8001 58.8301 35.5807V35.5668Z" fill="black"/>
<path d="M26.0311 96.3187C22.5578 93.5122 19.0844 90.6884 15.5625 87.9167C15.2568 87.677 14.6733 87.7118 14.2287 87.7326C10.3768 87.9375 6.53186 88.1702 2.68343 88.3891C2.33609 88.4099 1.98876 88.3891 1.49902 88.3891L9.14033 64.5031C10.2379 64.6871 11.0333 65.0588 11.5994 66.0591C12.9158 68.3723 14.3781 70.5987 15.7674 72.8772C15.8634 73.1009 16.0364 73.2827 16.255 73.3898C16.4735 73.4968 16.7232 73.522 16.9588 73.4607C19.7189 73.0833 22.486 72.7522 25.26 72.4674C25.8052 72.4236 26.3509 72.5446 26.8265 72.8147C28.4937 73.8081 30.0949 74.8987 31.7551 75.9164C32.3421 76.2637 32.4706 76.5867 32.2518 77.2571C30.2928 83.2659 28.3721 89.2887 26.4479 95.3183C26.3472 95.6414 26.3055 95.9818 26.2325 96.3117L26.0311 96.3187Z" fill="black"/>
<path d="M53.1824 35.529C53.1728 39.2217 52.0693 42.8287 50.0113 45.8948C47.9532 48.9608 45.0329 51.3484 41.619 52.756C38.205 54.1635 34.4506 54.5281 30.8296 53.8036C27.2087 53.079 23.8836 51.2979 21.2741 48.685C18.6647 46.0722 16.8879 42.7448 16.168 39.1229C15.4482 35.501 15.8176 31.7471 17.2297 28.335C18.6417 24.9229 21.033 22.0056 24.1017 19.9516C27.1704 17.8975 30.7789 16.7987 34.4717 16.7939C36.9323 16.7888 39.3696 17.2701 41.6436 18.2102C43.9175 19.1502 45.9833 20.5304 47.722 22.2715C49.4608 24.0125 50.8383 26.08 51.7754 28.3552C52.7125 30.6304 53.1907 33.0684 53.1824 35.529Z" fill="#FFB718"/>
</svg>
